<?xml version="1.0" standalone="no"?>
<!DOCTYPE svg PUBLIC "-//W3C//DTD SVG 20010904//EN"
 "http://www.w3.org/TR/2001/REC-SVG-20010904/DTD/svg10.dtd">
<svg version="1.0" xmlns="http://www.w3.org/2000/svg"
 width="225.000000pt" height="225.000000pt" viewBox="0 0 225.000000 225.000000"
 preserveAspectRatio="xMidYMid meet">
<metadata>
Created by potrace 1.14, written by Peter Selinger 2001-2017
</metadata>
<g transform="translate(0.000000,225.000000) scale(0.100000,-0.100000)"
fill="#000000" stroke="none">
<path d="M595 2076 c-18 -26 -17 -27 9 -55 29 -30 28 -34 -15 -45 -33 -7 -39
-22 -46 -108 -5 -53 -3 -70 10 -82 23 -23 37 -20 37 8 0 38 17 40 23 3 17 -97
19 -127 8 -127 -7 0 -9 -5 -5 -12 4 -7 3 -8 -4 -4 -15 9 -84 -23 -76 -35 3 -5
-2 -6 -10 -3 -18 7 -80 -37 -65 -47 6 -3 10 -10 10 -15 0 -5 2 -17 5 -26 4
-15 9 -16 26 -7 11 6 22 8 26 5 3 -3 1 -6 -4 -6 -6 0 -20 -9 -32 -20 -12 -12
-22 -18 -22 -15 0 3 -9 1 -20 -5 -12 -6 -19 -19 -17 -33 2 -18 -2 -21 -23 -19
-24 3 -23 1 10 -27 39 -33 74 -39 88 -15 8 14 12 12 31 -12 19 -24 25 -51 10
-42 -8 4 -39 -28 -39 -41 0 -6 9 -15 20 -21 11 -6 20 -15 20 -21 0 -6 -4 -7
-10 -4 -11 7 -14 -8 -3 -19 4 -3 8 -16 10 -28 2 -11 11 -26 20 -33 14 -11 14
-12 0 -18 -20 -7 -28 4 -57 75 -28 68 -38 68 -21 2 7 -25 10 -48 7 -51 -2 -2
-18 3 -34 11 -26 14 -33 26 -48 91 -10 41 -21 75 -25 75 -4 0 -9 -17 -11 -37
l-4 -38 -12 28 c-18 43 -16 134 4 145 13 7 14 13 5 30 -18 34 -13 52 19 63 17
6 30 12 30 13 0 2 -5 18 -12 36 -9 28 -9 35 7 46 16 12 16 16 -6 78 -13 36
-29 66 -34 66 -6 0 -16 20 -22 43 -11 41 -15 44 -47 45 -27 1 -36 -3 -41 -19
-9 -27 3 -76 21 -83 13 -5 12 -10 -2 -38 -15 -29 -15 -42 -4 -131 9 -63 18
-101 27 -104 20 -8 16 -17 -23 -71 -48 -64 -73 -131 -81 -216 l-6 -69 39 7
c21 4 50 10 63 13 21 5 23 3 17 -24 -6 -25 -3 -33 18 -46 20 -13 31 -14 56 -5
23 8 35 7 43 -1 8 -8 7 -11 -5 -11 -11 0 -17 -13 -21 -46 -2 -26 -10 -50 -17
-54 -9 -5 -11 -25 -7 -63 3 -31 1 -58 -4 -61 -5 -2 -4 -3 3 -2 7 2 13 11 13
22 0 15 8 20 43 22 24 2 42 -1 42 -7 0 -6 8 -8 18 -4 16 6 16 5 0 -13 -17 -19
-21 -64 -6 -64 4 0 8 -6 8 -12 1 -7 10 -24 21 -37 17 -21 22 -22 30 -10 7 12
9 11 9 -3 0 -11 5 -15 15 -12 8 4 15 1 15 -6 0 -6 4 -9 9 -5 5 3 17 -30 26
-72 30 -138 41 -178 47 -168 3 6 -5 55 -17 110 l-23 100 26 49 c15 27 32 51
38 53 6 2 23 -8 39 -23 23 -21 35 -25 64 -20 40 6 97 62 108 105 8 32 -27 61
-73 61 -41 0 -43 14 -7 52 14 15 24 31 20 34 -3 3 -21 -11 -40 -31 -22 -24
-37 -33 -41 -26 -4 6 -1 11 6 11 9 0 9 3 -2 10 -12 8 -11 10 5 10 11 0 28 8
37 19 15 17 13 19 -26 37 -62 28 -62 29 -47 11 7 -10 21 -17 30 -17 14 0 14
-2 1 -10 -8 -5 -18 -10 -22 -10 -7 0 -21 35 -23 55 0 6 -9 9 -19 7 -10 -2 -15
1 -12 6 3 5 -8 22 -24 37 l-29 28 26 50 c50 91 168 170 304 202 74 17 212 20
289 5 29 -6 55 -8 58 -5 3 2 6 51 8 107 2 86 1 93 -5 45 -10 -68 -20 -85 -23
-36 -1 31 -2 30 -8 -11 -4 -25 -8 -35 -8 -22 -2 23 -3 23 -127 20 -77 -2 -127
1 -129 7 -3 6 -5 -1 -5 -15 -1 -14 -5 -31 -10 -38 -13 -21 -21 9 -21 76 0 64
-14 122 -31 133 -14 9 -60 -7 -71 -24 -6 -9 -8 -9 -8 1 0 6 -7 12 -15 12 -17
0 -39 36 -30 50 3 6 21 10 39 10 38 0 47 6 39 26 -6 17 -48 18 -108 2 -34 -9
-45 -17 -45 -32 0 -20 0 -20 -15 1 -13 19 -34 129 -35 187 0 16 3 15 21 -8 22
-28 49 -35 49 -11 0 8 -11 39 -24 70 -17 37 -33 58 -50 65 -20 7 -26 16 -26
41 0 28 -21 47 -46 39 -4 -1 -10 4 -14 10 -6 9 -13 5 -25 -14z m81 -1141 c44
13 74 15 74 5 0 -4 -3 -10 -7 -13 -5 -2 -3 -3 3 -1 6 1 18 -6 27 -17 12 -13
30 -19 61 -19 28 0 46 -5 49 -14 7 -18 -3 -56 -15 -56 -5 0 -6 -5 -2 -12 5 -7
2 -9 -9 -5 -11 4 -14 2 -11 -8 7 -16 -25 -35 -59 -35 -23 0 -62 31 -52 41 4 5
-45 4 -55 -1 -3 -1 -9 -2 -13 -1 -5 1 -6 -3 -3 -8 3 -5 -1 -14 -9 -21 -11 -9
-14 -8 -13 7 0 10 -2 54 -5 98 -4 46 -3 74 2 66 6 -10 17 -11 37 -6z"/>
</g>
</svg>
